<?xml version="1.0" encoding="utf-8"?>
<!-- Generator: Adobe Illustrator 21.1.0, SVG Export Plug-In . SVG Version: 6.00 Build 0)  -->
<svg version="1.1" id="Layer_1" xmlns="http://www.w3.org/2000/svg" xmlns:xlink="http://www.w3.org/1999/xlink" x="0px" y="0px"
	 viewBox="0 0 190 33" style="enable-background:new 0 0 190 33;" xml:space="preserve">
<title>logo-global</title>
<desc>Created with Sketch.</desc>
<g id="Page-1">
	<g id="logo-global">
		<g id="Layer_1_1_">
			
				<ellipse id="Oval" transform="matrix(2.896848e-02 -0.9996 0.9996 2.896848e-02 0.7948 24.7041)" cx="13.1" cy="11.9" rx="3.7" ry="3.7"/>
			<path id="Shape" d="M6.1,14c0.7,0,2.8,0.3,4.2,1.4c1.1,0.8,2,1.8,2.8,3c0.1,0.2,0.2,0.4,0.3,0.7c0-0.2,0.1-0.4,0.2-0.6
				c0.6-0.9,1.3-1.7,2-2.4c1.1-0.9,2.2-1.8,5.1-2l0,3.9c-1,0.1-1.9,0.5-2.6,1.1c-1.1,1-1.9,2.2-2.4,3.5c-0.3,0.9-0.4,1.8-0.4,2.7
				l0,7.5l-3.6,0v-7.5c0-0.7-0.2-2.2-0.5-2.9c-0.4-0.7-1.2-2.7-2.7-3.6c-0.5-0.3-1.2-0.9-2.2-0.9L6.1,14z"/>
			<path id="Shape_1_" d="M13.3,4.5c0.1,0.2,0.3,0.3,0.4,0.4c2,1.3,3.9,2.9,5.7,4.6c0.9,0.9,3.2,3.6,3.2,7.1c0,2-0.7,3.9-1.9,5.5
				c-0.7,0.7-3,2.6-4.4,2.8l0,4c1.7-0.3,4.6-1.4,6.2-3.1c1.6-1.7,3-3.6,3.6-6.1c0.7-2.9,0.2-6.2-0.7-8.1c-1.2-2.5-3.2-4.9-5.8-7
				L13.3,0L7.1,4.7c-2.6,2.1-4.6,4.5-5.8,7c-0.9,1.9-1.4,5.2-0.7,8.1c0.6,2.5,2,4.5,3.6,6.1s4.5,2.7,6.2,3.1l0-4
				c-1.4-0.2-3.8-2-4.4-2.8c-1.2-1.6-1.9-3.5-2-5.5c0-3.4,2.3-6.2,3.2-7.1C9,7.9,10.9,6.3,12.9,5C13.1,4.8,13.2,4.7,13.3,4.5
				L13.3,4.5z"/>
			<path id="Shape_2_" d="M36.5,20.7c-0.1-1.1-0.8-1.7-1.8-1.7c-1.2,0-1.9,1-1.9,3c0,1.4,0.3,2.8,2,2.8c1.1,0,1.6-0.8,1.7-1.8h3.2
				c-0.3,2.7-2.2,4.3-4.9,4.3c-3.4,0-5.4-2.1-5.4-5.5s2.2-5.5,5.1-5.5c3.1,0,4.9,1.6,5.1,4.2L36.5,20.7L36.5,20.7z"/>
			<polygon id="Shape_3_" points="40.9,27.2 40.9,16.8 43.9,16.8 43.9,27.2 			"/>
			<path id="Shape_4_" d="M48,22.5c0-0.8,0.5-1.3,1.4-1.3c0.7,0,1.3,0.6,1.3,1.3H48L48,22.5z M53.6,24.1c0-2.7-1.6-4.7-4.4-4.7
				c-2.4,0-4.2,1.6-4.2,4.1c0,2.5,1.8,3.9,4.2,3.9c1.7,0,3.6-0.6,4.1-2.5h-2.8c-0.2,0.4-0.6,0.7-1.1,0.7c-0.4,0-0.8-0.1-1.1-0.4
				c-0.3-0.3-0.4-0.7-0.4-1.1L53.6,24.1L53.6,24.1z"/>
			<polygon id="Shape_5_" points="54.1,19.6 57,19.6 58.3,24.4 59.6,19.6 62.4,19.6 59.9,27.2 56.7,27.2 			"/>
			<path id="Shape_6_" d="M65.8,22.5c0-0.8,0.5-1.3,1.4-1.3c0.7,0,1.3,0.6,1.3,1.3H65.8L65.8,22.5z M71.5,24.1
				c0-2.7-1.6-4.7-4.4-4.7c-2.4,0-4.2,1.6-4.2,4.1c0,2.5,1.8,3.9,4.2,3.9c1.7,0,3.6-0.6,4.1-2.5h-2.8c-0.2,0.4-0.6,0.7-1.1,0.7
				c-0.4,0-0.8-0.1-1-0.4c-0.3-0.3-0.4-0.7-0.4-1.1L71.5,24.1L71.5,24.1z"/>
			<polygon id="Shape_7_" points="72.6,27.2 72.6,16.8 75.6,16.8 75.6,27.2 			"/>
			<path id="Shape_8_" d="M80.7,25.7c-0.6,0-0.9-0.3-0.9-0.6c0-1,1.3-0.8,2.2-1.2C82,24.9,81.7,25.7,80.7,25.7L80.7,25.7z
				 M85.3,27.2V27c-0.4-0.3-0.4-0.5-0.4-1v-3.5c0-1.8-0.2-3.1-3.7-3.1c-2.9,0-4,0.9-4,2.5H80c0.1-0.7,0.6-0.7,1-0.7
				c0.3,0,1,0.1,1,0.6c0,1.4-5.3-0.1-5.3,3.3c0,1.6,1.2,2.3,2.7,2.3c1.1,0,2-0.2,2.8-1l0.1,0.8L85.3,27.2L85.3,27.2z"/>
			<path id="Shape_9_" d="M86.3,19.6H89v1.2c0.7-0.9,1.4-1.4,2.5-1.4c2,0,2.9,1.2,2.9,3.2v4.5h-2.9v-4c0-0.8-0.2-1.4-1-1.4
				c-0.9,0-1.1,0.6-1.1,1.6v3.9h-2.9V19.6L86.3,19.6z"/>
			<path id="Shape_10_" d="M99.5,25.2c-1,0-1.2-0.9-1.2-1.7s0.3-1.8,1.2-1.8s1.3,0.9,1.3,1.7C100.9,24.3,100.6,25.2,99.5,25.2
				L99.5,25.2z M103.7,27.2V16.8h-2.9v3.6c-0.6-0.8-1.3-1-2.2-1c-1.8,0-3.1,1.6-3.1,4.1c0,2.1,1.1,3.9,3.4,3.9
				c0.9,0,1.6-0.3,2.3-1.2v1H103.7L103.7,27.2z"/>
			<polygon id="Shape_11_" points="107.8,27.2 107.8,16.8 111.8,16.8 113.6,23.2 115.4,16.8 119.5,16.8 119.5,27.2 116.5,27.2 
				116.5,24 116.5,22.4 116.7,20.5 116.6,20.5 114.8,27.2 112.5,27.2 110.6,20.5 110.6,20.5 110.7,22 110.8,23.6 110.8,27.2 			"/>
			<path id="Shape_12_" d="M123.2,22.5c0-0.8,0.5-1.3,1.4-1.3c0.7,0,1.3,0.6,1.3,1.3H123.2L123.2,22.5z M128.8,24.1
				c0-2.7-1.6-4.7-4.4-4.7c-2.4,0-4.2,1.6-4.2,4.1c0,2.5,1.8,3.9,4.2,3.9c1.7,0,3.6-0.6,4.1-2.5h-2.8c-0.2,0.4-0.6,0.7-1.1,0.7
				c-0.4,0-0.8-0.1-1.1-0.4c-0.3-0.3-0.4-0.7-0.4-1.1L128.8,24.1L128.8,24.1z"/>
			<path id="Shape_13_" d="M134.3,27.2c-3.9,0.2-4.3-0.1-4.3-2.7v-3.2h-1v-1.7h1.1v-2.4h2.9v2.4h1.4v1.7h-1.4v2.7
				c0,0.7,0.1,0.9,0.9,0.9h0.5L134.3,27.2L134.3,27.2z"/>
			<path id="Shape_14_" d="M135.2,19.6h2.7v1.5h0c0.4-1.2,1.1-1.7,2.3-1.7c0.1,0,0.3,0,0.4,0v3c-0.2,0-0.4-0.1-0.6-0.1
				c-1.2,0-1.8,0.6-1.8,2.2v2.6h-2.9V19.6L135.2,19.6z"/>
			<path id="Shape_15_" d="M145,21.4c0.8,0,1.3,0.8,1.3,1.9c0,1.4-0.5,2-1.3,2c-0.8,0-1.3-0.6-1.3-2C143.7,22.5,144,21.4,145,21.4
				L145,21.4z M140.8,23.5c0,2.6,1.8,3.9,4.2,3.9s4.2-1.3,4.2-4.1c0-2.4-1.6-3.9-4.2-3.9C142.5,19.4,140.8,20.8,140.8,23.5
				L140.8,23.5z"/>
			<path id="Shape_16_" d="M153.9,25.1c-0.8,0-1.2-0.7-1.2-1.8c0-1,0.5-1.7,1.2-1.7c0.8,0,1.3,0.6,1.3,1.8
				C155.2,24.4,154.7,25.1,153.9,25.1L153.9,25.1z M149.8,19.6v10.1h2.9v-3.3c0.4,0.6,1.1,1,1.9,1c1.7,0,3.5-1.1,3.5-4
				c0-2.1-1.1-3.9-3.3-3.9c-0.8,0-1.9,0.4-2.3,1.3h0v-1.1L149.8,19.6L149.8,19.6z"/>
			<path id="Shape_17_" d="M162.5,25.7c-0.6,0-0.9-0.3-0.9-0.6c0-1,1.3-0.8,2.2-1.2C163.8,24.9,163.5,25.7,162.5,25.7L162.5,25.7z
				 M167.1,27.2V27c-0.4-0.3-0.4-0.5-0.4-1v-3.5c0-1.8-0.2-3.1-3.7-3.1c-2.9,0-4,0.9-4,2.5h2.8c0.1-0.7,0.6-0.7,1-0.7
				c0.3,0,1,0.1,1,0.6c0,1.4-5.3-0.1-5.3,3.3c0,1.6,1.2,2.3,2.7,2.3c1.1,0,2-0.2,2.8-1l0.1,0.8L167.1,27.2L167.1,27.2z"/>
			<path id="Shape_18_" d="M167.8,19.6h2.7v1.5h0c0.4-1.2,1.1-1.7,2.3-1.7c0.1,0,0.3,0,0.4,0v3c-0.2,0-0.4-0.1-0.6-0.1
				c-1.2,0-1.8,0.6-1.8,2.2v2.6h-2.9V19.6L167.8,19.6z"/>
			<polygon id="Shape_19_" points="176.5,25 176.5,27.2 173.6,27.2 173.6,16.8 176.5,16.8 176.5,21.9 178.4,19.6 181.8,19.6 
				179.1,22.5 182.2,27.1 178.7,27.1 177.1,24.5 			"/>
			<path id="Shape_20_" d="M185,24.8c0,0.3,0.1,0.5,0.3,0.7c0.2,0.2,0.5,0.2,0.7,0.2c0.5,0,0.9-0.1,0.9-0.7c0-1.2-4.5-0.2-4.5-3.2
				c0-1.9,2-2.5,3.5-2.5c1.6,0,3.5,0.4,3.7,2.4H187c0-0.2-0.1-0.4-0.3-0.6c-0.2-0.1-0.4-0.2-0.6-0.2c-0.5,0-0.8,0.2-0.8,0.5
				c0,1.1,4.7,0.3,4.7,3.2c0,1.6-1.3,2.6-4,2.6c-1.7,0-3.6-0.5-3.7-2.6L185,24.8L185,24.8z"/>
		</g>
	</g>
</g>
</svg>
