<?xml version="1.0" encoding="utf-8"?>
<!-- Generator: Adobe Illustrator 21.1.0, SVG Export Plug-In . SVG Version: 6.00 Build 0)  -->
<svg version="1.1" id="Layer_1" xmlns="http://www.w3.org/2000/svg" xmlns:xlink="http://www.w3.org/1999/xlink" x="0px" y="0px"
	 viewBox="0 0 140 118" style="enable-background:new 0 0 140 118;" xml:space="preserve">
<style type="text/css">
	.st0{opacity:0;fill:#FFFFFF;}
	.st1{fill:#FFFFFF;}
	.st2{fill:#FFFFFF;stroke:#FFFFFF;stroke-width:0.2383;}
</style>
<path class="st0" d="M0,0v76.4l0,0v37.4l3-0.4c0,0,4.4-0.6,7.7,0.4l1.6,0.5c6.3,2,21.1,6.8,31.2,0.5c7.1-4.4,5.1-10.4,3.7-14.3
	c-1.3-4-1.6-5.5,0.6-7.2c3.4-2.6,21.7,0.9,28.6,2.2l2.5,0.5c10.9,2.1,27.3,5.4,35.4-1.7c4.8-4.3,2.4-10.2,0.5-15
	c-1.5-3.6-2.9-7-1.7-9.4c1.1-2.3,10.2-1,13.6-0.6l3,0.4c6.2,0.6,9-1.5,9.4-2L140,67V41.5v-3.3V0H0z"/>
<path d="M115.4,40c-5.7,3.7-9.8,8.9-9.8,8.9s3-11.4-1.7-12.9s-12.2-1.1-21.4,3.7c-15,7.8-39,22-47.2,25.7
	c-9.1,4.1-17.3,6.7-26.1,8.4c-3.8,0.8-5,0.9-6.4,1.2v35.8c0,0,4.9-0.7,8.8,0.5c3.9,1.1,20.5,7.6,30.6,1.3c10.1-6.3-4.1-15,4.1-21.3
	c4.4-3.5,21.8,0,31.4,1.9s27.5,5.9,35.1-0.7c6.4-5.6-5.5-16.1-1.8-23.6c2.3-4.7,13.8-2.2,19.2-1.7c5.4,0.6,7.4-1.3,7.4-1.3V40.5
	c-1-0.1-7-1.1-10.1-2.2C121.5,36.4,120.4,36.7,115.4,40z"/>
<path d="M57.6,50.4c11.9-7.3,27.8-16.7,37.4-20c18.7-6.4,17,7.2,17,7.2s3.9-3.7,7.9-4.5c3.9-0.7,9.4,2.7,11.8,3.7
	c2.2,0.9,5.1,1.4,5.7,1.5V25.6H2.7v47.8c3-0.4,11-2,19.1-4.9C33.9,64,43.4,59,57.6,50.4z"/>
<g>
	<path d="M6.5,13.1h4V16H3.2V3.1h3.3V13.1z"/>
	<path d="M14.7,13.7L13.8,16h-3.5l4.9-12.9h3.6L23.6,16h-3.5l-0.8-2.2h-4.6V13.7z M17,7.1L17,7.1l-1.4,4.1h2.8L17,7.1z"/>
	<path d="M31.2,3.1h4.1l-5.1,6.1l5.5,6.8h-4.3l-4.3-5.6l0,0V16h-3.3V3.1h3.3v5.3l0,0L31.2,3.1z"/>
	<path d="M39.2,5.9v2.2H43v2.8h-3.8v2.2h4V16h-7.3V3.1h7.3v2.8C43.2,5.9,39.2,5.9,39.2,5.9z"/>
	<path d="M46.5,2.4l4.7,10.8l4.7-10.8L58.4,16H57l-1.6-8.7l0,0l-4.1,9.2l-4.1-9.2l0,0L45.4,16h-1.5L46.5,2.4z"/>
	<path d="M59.6,3.1h6.6v1.3H61v3.8h5v1.3h-5v5.1h5.2V16h-6.6V3.1z"/>
	<path d="M71.5,16h-1.4V4.4H67V3.1h7.6v1.3h-3.1V16z"/>
	<path d="M77,16h-1.4V3.1h1.9c2.4,0,4.7,0.6,4.7,3.5c0,2-1.2,3.4-3.2,3.5l4,5.9h-1.7l-3.9-5.6H77V16z M77,9.1h0.4
		c1.6,0,3.2-0.3,3.2-2.3c0-2.1-1.5-2.3-3.3-2.3H77V9.1z"/>
	<path d="M95.6,9.5c0,3.7-3,6.6-6.7,6.6s-6.7-2.9-6.7-6.6s3-6.7,6.7-6.7S95.6,5.9,95.6,9.5z M83.7,9.5c0,2.9,2.3,5.3,5.2,5.3
		c2.9,0,5.2-2.4,5.2-5.3s-2.3-5.3-5.2-5.3S83.7,6.6,83.7,9.5z"/>
	<path d="M98.1,16h-1.4V3.1h2.1c1.1,0,2.2,0,3.2,0.7c0.9,0.7,1.4,1.8,1.4,2.9c0,1-0.4,2.1-1.2,2.8c-0.9,0.7-2,0.9-3,0.9h-1L98.1,16
		L98.1,16z M98.1,9H99c1.6,0,2.9-0.5,2.9-2.3c0-2.1-1.7-2.3-3.3-2.3h-0.5V9z"/>
	<path d="M104.3,12.3l-1.5,3.7h-1.6l5.9-13.5l5.8,13.5h-1.6l-1.5-3.7H104.3z M107,5.8l-2.2,5.2h4.3L107,5.8z"/>
	<path d="M114.8,16h-1.4V3.1h1.9c2.4,0,4.7,0.6,4.7,3.5c0,2-1.2,3.4-3.2,3.5l4.1,5.8H119l-3.9-5.6h-0.4V16H114.8z M114.8,9.1h0.4
		c1.6,0,3.2-0.3,3.2-2.3c0-2.1-1.5-2.3-3.3-2.3h-0.4v4.6H114.8z"/>
	<path d="M128.6,3.1h1.9l-6,6l6.2,6.9h-2l-5.2-5.9l-0.4,0.4V16h-1.4V3.1h1.4v5.5L128.6,3.1z"/>
	<path d="M136,5.6c-0.5-0.9-1.1-1.4-2.2-1.4c-1.1,0-2.1,0.8-2.1,2c0,1.1,1.1,1.6,2,2l0.8,0.4c1.7,0.7,3.1,1.6,3.1,3.6
		c0,2.3-1.8,4-4,4c-2.1,0-3.6-1.3-4-3.3l1.4-0.4c0.2,1.3,1.2,2.4,2.6,2.4c1.4,0,2.6-1.1,2.6-2.5c0-1.5-1.2-2-2.4-2.6L133,9.5
		c-1.5-0.7-2.8-1.5-2.8-3.3c0-2,1.7-3.3,3.6-3.3c1.4,0,2.6,0.7,3.3,2L136,5.6z"/>
</g>
<path class="st1" d="M83.8,39.1c0,13,10.5,23.5,23.4,23.5s23.4-10.6,23.4-23.5c0-13-10.5-23.5-23.4-23.5
	C94.3,15.5,83.8,26.1,83.8,39.1z"/>
<ellipse cx="107.2" cy="39.1" rx="20.4" ry="20.5"/>
<path class="st2" d="M2.7,75c1.4-0.2,2.6-0.4,6.4-1.2c8.7-1.7,17-4.3,26.1-8.4c8.3-3.7,32.2-17.9,47.2-25.7
	c9.2-4.8,16.7-5.2,21.4-3.7s1.7,12.9,1.7,12.9s4.2-5.2,9.8-8.9c5-3.3,6.2-3.6,11.8-1.6c3.1,1.1,9.2,2,10.1,2.2v-2.2
	c-0.6-0.1-3.5-0.7-5.7-1.5c-2.5-1-7.9-4.5-11.8-3.7c-3.9,0.7-7.9,4.5-7.9,4.5s1.7-13.6-17-7.2c-9.6,3.3-25.4,12.7-37.4,20
	C43.4,59,34,64,21.8,68.4c-8.1,3-16.1,4.5-19.1,4.9C2.7,73.3,2.7,75,2.7,75z"/>
</svg>
